<?xml version="1.0" encoding="utf-8"?>
<!-- Generator: Adobe Illustrator 16.0.0, SVG Export Plug-In . SVG Version: 6.00 Build 0)  -->
<!DOCTYPE svg PUBLIC "-//W3C//DTD SVG 1.1//EN" "http://www.w3.org/Graphics/SVG/1.1/DTD/svg11.dtd">
<svg version="1.1" id="Layer_1" xmlns="http://www.w3.org/2000/svg" xmlns:xlink="http://www.w3.org/1999/xlink" x="0px" y="0px"
	 width="50px" height="50px" viewBox="0 0 50 50" enable-background="new 0 0 50 50" xml:space="preserve">
<g>
	<path d="M25,20.833c-9.19,0-16.667-7.476-16.667-16.666C8.333,1.866,6.468,0,4.167,0S0,1.866,0,4.167c0,13.785,11.215,25,25,25
		c9.19,0,16.667,7.476,16.667,16.666c0,2.301,1.865,4.167,4.167,4.167S50,48.134,50,45.833C50,32.048,38.785,20.833,25,20.833z"/>
	<path d="M38.416,42.424H8.727c0.357-1.693,0.962-3.285,1.791-4.747h25.668c-0.771-1.056-1.694-1.978-2.725-2.778H12.469
		c1.435-1.639,3.174-3.006,5.143-3.984c-3.172-0.879-6.113-2.295-8.722-4.162C3.461,31.337,0,38.184,0,45.833
		C0,48.134,1.865,50,4.167,50s4.167-1.866,4.167-4.167c0-0.214,0.038-0.42,0.046-0.632h30.446
		C38.78,44.246,38.644,43.318,38.416,42.424z"/>
	<path d="M11.584,7.576h29.688c-0.355,1.693-0.963,3.285-1.792,4.747H13.814c0.771,1.056,1.694,1.978,2.725,2.778h20.987
		c-1.434,1.636-3.17,3-5.138,3.979c3.172,0.879,6.113,2.3,8.722,4.167C46.539,18.658,50,11.816,50,4.167C50,1.866,48.135,0,45.833,0
		s-4.167,1.866-4.167,4.167c0,0.214-0.038,0.42-0.046,0.632H11.175C11.22,5.754,11.356,6.682,11.584,7.576z"/>
</g>
</svg>
